<svg xmlns="http://www.w3.org/2000/svg" version="1.1" xmlns:xlink="http://www.w3.org/1999/xlink" xmlns:svgjs="http://svgjs.dev/svgjs" width="1000" height="623" viewBox="0 0 1000 623"><g transform="matrix(1,0,0,1,-0.6060606060606233,0.25222672064785456)"><svg viewBox="0 0 396 247" data-background-color="#ffffff" preserveAspectRatio="xMidYMid meet" height="623" width="1000" xmlns="http://www.w3.org/2000/svg" xmlns:xlink="http://www.w3.org/1999/xlink"><g id="tight-bounds" transform="matrix(1,0,0,1,0.2400000000000091,-0.09999999999999432)"><svg viewBox="0 0 395.52 247.2" height="247.2" width="395.52"><g><svg></svg></g><g><svg viewBox="0 0 395.52 247.2" height="247.2" width="395.52"><g mask="url(#8e736f30-3074-4960-9f33-b84e85f2652c)"><g><path xmlns="http://www.w3.org/2000/svg" d="M162.609 247.2c-11.05 0-23.529-0.953-37.437-2.858v0c-7.621-0.953-12.86-2.953-15.718-6.001-2.858-3.048-4.096-8.002-3.715-14.861v0c1.334-18.861 4.477-42.162 9.43-69.902 4.954-27.702 10.955-54.413 18.005-80.132v0c1.334-4.763 4.001-8.097 8.001-10.003 4.001-1.905 9.24-2.858 15.718-2.858v0c11.622 0 17.433 3.239 17.433 9.717v0c0 2.667-0.572 5.716-1.715 9.145v0c-4.954 15.242-9.907 35.665-14.86 61.271-4.954 25.644-8.478 50.088-10.574 73.331v0c5.716 0.572 12.193 0.857 19.433 0.858v0c33.341 0 58.261-10.098 74.76-30.293 16.461-20.195 24.691-47.154 24.691-80.876v0c0-22.672-6.478-40.2-19.433-52.583-12.955-12.384-31.245-18.576-54.869-18.576v0c-15.242 0-30.331 2.381-45.268 7.144-14.975 4.763-28.464 11.05-40.467 18.862v0c-2.477 1.715-5.144 2.572-8.001 2.572v0c-3.239 0-5.811-1.372-7.716-4.115-1.905-2.782-2.858-6.173-2.858-10.174v0c0-4.572 0.762-8.326 2.286-11.26 1.524-2.972 4.096-5.697 7.716-8.173v0c13.146-8.954 28.578-15.775 46.297-20.462 17.718-4.649 34.77-6.973 51.154-6.973v0c23.243 0 43.343 4.039 60.3 12.117 16.956 8.116 30.007 19.986 39.152 35.608 9.145 15.623 13.717 34.484 13.717 56.585v0c0 28.769-5.716 53.86-17.147 75.274-11.431 21.453-28.102 38.085-50.011 49.898-21.91 11.812-48.011 17.718-78.304 17.718z" fill="#000000" fill-rule="nonzero" stroke="none" stroke-width="1" stroke-linecap="butt" stroke-linejoin="miter" stroke-miterlimit="10" stroke-dasharray="" stroke-dashoffset="0" font-family="none" font-weight="none" font-size="none" text-anchor="none" style="mix-blend-mode: normal" data-fill-palette-color="tertiary"></path></g></g><g transform="matrix(1,0,0,1,63.91960479887081,37.08)"><svg viewBox="0 0 267.68079040225837 173.04" height="173.04" width="267.68079040225837"><g><svg viewBox="0 0 267.68079040225837 173.04" height="173.04" width="267.68079040225837"><g><svg viewBox="0 0 267.68079040225837 173.04" height="173.04" width="267.68079040225837"><g><svg viewBox="0 0 267.68079040225837 173.04" height="173.04" width="267.68079040225837"><g id="textblocktransform"><svg viewBox="0 0 267.68079040225837 173.04" height="173.04" width="267.68079040225837" id="textblock"><g><svg viewBox="0 0 267.68079040225837 173.04" height="173.04" width="267.68079040225837"><g transform="matrix(1,0,0,1,0,0)"><svg width="267.68079040225837" viewBox="-0.75 -46 110.58999633789062 71.8499984741211" height="173.04" data-palette-color="#000000"><path d="M15.4 0.25Q12.5 0.25 8.85-0.25L8.85-0.25Q6.85-0.5 6.1-1.3 5.35-2.1 5.45-3.9L5.45-3.9Q5.8-8.85 7.1-16.13 8.4-23.4 10.25-30.15L10.25-30.15Q10.6-31.4 11.65-31.9 12.7-32.4 14.4-32.4L14.4-32.4Q17.45-32.4 17.45-30.7L17.45-30.7Q17.45-30 17.15-29.1L17.15-29.1Q15.85-25.1 14.55-18.38 13.25-11.65 12.7-5.55L12.7-5.55Q14.2-5.4 16.1-5.4L16.1-5.4Q24.85-5.4 29.18-10.7 33.5-16 33.5-24.85L33.5-24.85Q33.5-30.8 30.1-34.05 26.7-37.3 20.5-37.3L20.5-37.3Q16.5-37.3 12.58-36.05 8.65-34.8 5.5-32.75L5.5-32.75Q4.85-32.3 4.1-32.3L4.1-32.3Q3.25-32.3 2.75-33.02 2.25-33.75 2.25-34.8L2.25-34.8Q2.25-36 2.65-36.77 3.05-37.55 4-38.2L4-38.2Q7.45-40.55 12.1-41.78 16.75-43 21.05-43L21.05-43Q27.15-43 31.6-40.88 36.05-38.75 38.45-34.65 40.85-30.55 40.85-24.75L40.85-24.75Q40.85-17.2 37.85-11.58 34.85-5.95 29.1-2.85 23.35 0.25 15.4 0.25L15.4 0.25ZM47.25 0.25Q45.35 0.25 44.57-1.75 43.8-3.75 43.8-8.15L43.8-8.15Q43.8-14.65 45.65-20.5L45.65-20.5Q46.1-21.95 47.12-22.63 48.15-23.3 50-23.3L50-23.3Q51-23.3 51.4-23.05 51.8-22.8 51.8-22.1L51.8-22.1Q51.8-21.3 51.05-18.5L51.05-18.5Q50.55-16.5 50.25-15 49.95-13.5 49.75-11.3L49.75-11.3Q51.4-15.6 53.45-18.3 55.5-21 57.47-22.15 59.45-23.3 61.1-23.3L61.1-23.3Q64.35-23.3 64.35-20.05L64.35-20.05Q64.35-19.4 63.9-16.9L63.9-16.9Q63.5-14.9 63.5-14.4L63.5-14.4Q63.5-12.65 64.75-12.65L64.75-12.65Q66.15-12.65 68.35-14.85L68.35-14.85Q69-15.5 69.7-15.5L69.7-15.5Q70.35-15.5 70.72-14.93 71.1-14.35 71.1-13.4L71.1-13.4Q71.1-11.55 70.1-10.5L70.1-10.5Q68.7-9.05 66.82-8.03 64.95-7 62.85-7L62.85-7Q60.2-7 58.82-8.35 57.45-9.7 57.45-12L57.45-12Q57.45-12.75 57.6-13.5L57.6-13.5Q57.7-14.5 57.7-14.85L57.7-14.85Q57.7-15.65 57.15-15.65L57.15-15.65Q56.4-15.65 55.17-13.98 53.95-12.3 52.75-9.55 51.55-6.8 50.8-3.75L50.8-3.75Q50.25-1.4 49.52-0.58 48.8 0.25 47.25 0.25L47.25 0.25ZM73-26.6Q70.9-26.6 69.85-27.58 68.8-28.55 68.8-30.3L68.8-30.3Q68.8-32.05 70.17-33.23 71.55-34.4 73.6-34.4L73.6-34.4Q75.45-34.4 76.6-33.5 77.75-32.6 77.75-30.95L77.75-30.95Q77.75-28.95 76.45-27.78 75.15-26.6 73-26.6L73-26.6ZM72.6 0.25Q69.35 0.25 67.87-2.05 66.4-4.35 66.4-8.15L66.4-8.15Q66.4-10.4 66.97-13.93 67.55-17.45 68.45-20.5L68.45-20.5Q68.9-22.1 69.65-22.7 70.4-23.3 72.05-23.3L72.05-23.3Q74.6-23.3 74.6-21.6L74.6-21.6Q74.6-20.35 73.65-15.8L73.65-15.8Q72.45-10.3 72.45-8.35L72.45-8.35Q72.45-6.85 72.85-6.05 73.25-5.25 74.2-5.25L74.2-5.25Q75.1-5.25 76.45-6.5 77.8-7.75 80.05-10.45L80.05-10.45Q80.65-11.15 81.4-11.15L81.4-11.15Q82.05-11.15 82.42-10.55 82.8-9.95 82.8-8.9L82.8-8.9Q82.8-6.9 81.85-5.8L81.85-5.8Q76.9 0.25 72.6 0.25L72.6 0.25ZM105.44-11.15Q106.09-11.15 106.47-10.55 106.84-9.95 106.84-8.9L106.84-8.9Q106.84-6.9 105.89-5.8L105.89-5.8Q103.74-3.15 101.27-1.45 98.79 0.25 95.64 0.25L95.64 0.25Q92.99 0.25 91.34-1.65L91.34-1.65Q88.49 0.2 85.39 0.25L85.39 0.25Q84.74 9.9 82.44 16.38 80.14 22.85 75.69 22.85L75.69 22.85Q72.99 22.85 71.69 20.9 70.39 18.95 70.39 15.5L70.39 15.5Q70.39 10.6 72.64 4.08 74.89-2.45 79.59-10.3L79.59-10.3Q79.59-17.6 79.49-20.45L79.49-20.45Q79.44-21.9 80.64-22.75 81.84-23.6 83.64-23.6L83.64-23.6Q84.69-23.6 85.17-23.18 85.64-22.75 85.69-21.5L85.69-21.5Q85.69-20.25 85.74-19.65L85.74-19.65Q87.34-21.65 88.89-22.53 90.44-23.4 92.19-23.4L92.19-23.4Q94.99-23.4 96.77-21.15 98.54-18.9 98.54-15.25L98.54-15.25Q98.54-12.6 97.69-10.1 96.84-7.6 95.34-5.55L95.34-5.55Q96.39-5.25 97.09-5.25L97.09-5.25Q98.74-5.25 100.24-6.45 101.74-7.65 104.09-10.45L104.09-10.45Q104.69-11.15 105.44-11.15L105.44-11.15ZM85.64-4.55Q87.44-4.95 88.97-6.53 90.49-8.1 91.39-10.43 92.29-12.75 92.29-15.3L92.29-15.3Q92.29-16.8 91.69-17.57 91.09-18.35 90.09-18.35L90.09-18.35Q88.29-18.35 85.74-14.55L85.74-14.55Q85.69-12.35 85.69-8.1L85.69-8.1Q85.69-5.8 85.64-4.55L85.64-4.55ZM76.09 17.95Q77.44 17.95 78.34 12.08 79.24 6.2 79.49-2.55L79.49-2.55Q77.34 2.45 76.09 7 74.84 11.55 74.84 14.65L74.84 14.65Q74.84 16.25 75.22 17.1 75.59 17.95 76.09 17.95L76.09 17.95Z" opacity="1" transform="matrix(1,0,0,1,0,0)" fill="#000000" class="undefined-text-0" data-fill-palette-color="primary" id="text-0"></path></svg></g></svg></g></svg></g></svg></g><g></g></svg></g></svg></g></svg></g></svg></g><defs><mask id="e3526a22-5720-44d4-a003-b2e72158c596"><rect width="395.52" height="247.2" fill="white"></rect><g transform="matrix(1,0,0,1,63.91960479887081,37.08)" id="clone"><svg viewBox="0 0 267.68079040225837 173.04" height="173.04" width="267.68079040225837"><g><svg viewBox="0 0 267.68079040225837 173.04" height="173.04" width="267.68079040225837"><g><svg viewBox="0 0 267.68079040225837 173.04" height="173.04" width="267.68079040225837"><g><svg viewBox="0 0 267.68079040225837 173.04" height="173.04" width="267.68079040225837"><g id="SvgjsG1022"><svg viewBox="0 0 267.68079040225837 173.04" height="173.04" width="267.68079040225837" id="SvgjsSvg1021"><g><svg viewBox="0 0 267.68079040225837 173.04" height="173.04" width="267.68079040225837"><g transform="matrix(1,0,0,1,0,0)"><svg width="267.68079040225837" viewBox="-0.75 -46 110.58999633789062 71.8499984741211" height="173.04" data-palette-color="#000000"><path d="M15.4 0.25Q12.5 0.25 8.85-0.25L8.85-0.25Q6.85-0.5 6.1-1.3 5.35-2.1 5.45-3.9L5.45-3.9Q5.8-8.85 7.1-16.13 8.4-23.4 10.25-30.15L10.25-30.15Q10.6-31.4 11.65-31.9 12.7-32.4 14.4-32.4L14.4-32.4Q17.45-32.4 17.45-30.7L17.45-30.7Q17.45-30 17.15-29.1L17.15-29.1Q15.85-25.1 14.55-18.38 13.25-11.65 12.7-5.55L12.7-5.55Q14.2-5.4 16.1-5.4L16.1-5.4Q24.85-5.4 29.18-10.7 33.5-16 33.5-24.85L33.5-24.85Q33.5-30.8 30.1-34.05 26.7-37.3 20.5-37.3L20.5-37.3Q16.5-37.3 12.58-36.05 8.65-34.8 5.5-32.75L5.5-32.75Q4.85-32.3 4.1-32.3L4.1-32.3Q3.25-32.3 2.75-33.02 2.25-33.75 2.25-34.8L2.25-34.8Q2.25-36 2.65-36.77 3.05-37.55 4-38.2L4-38.2Q7.45-40.55 12.1-41.78 16.75-43 21.05-43L21.05-43Q27.15-43 31.6-40.88 36.05-38.75 38.45-34.65 40.85-30.55 40.85-24.75L40.85-24.75Q40.85-17.2 37.85-11.58 34.85-5.95 29.1-2.85 23.35 0.25 15.4 0.25L15.4 0.25ZM47.25 0.25Q45.35 0.25 44.57-1.75 43.8-3.75 43.8-8.15L43.8-8.15Q43.8-14.65 45.65-20.5L45.65-20.5Q46.1-21.95 47.12-22.63 48.15-23.3 50-23.3L50-23.3Q51-23.3 51.4-23.05 51.8-22.8 51.8-22.1L51.8-22.1Q51.8-21.3 51.05-18.5L51.05-18.5Q50.55-16.5 50.25-15 49.95-13.5 49.75-11.3L49.75-11.3Q51.4-15.6 53.45-18.3 55.5-21 57.47-22.15 59.45-23.3 61.1-23.3L61.1-23.3Q64.35-23.3 64.35-20.05L64.35-20.05Q64.35-19.4 63.9-16.9L63.9-16.9Q63.5-14.9 63.5-14.4L63.5-14.4Q63.5-12.65 64.75-12.65L64.75-12.65Q66.15-12.65 68.35-14.85L68.35-14.85Q69-15.5 69.7-15.5L69.7-15.5Q70.35-15.5 70.72-14.93 71.1-14.35 71.1-13.4L71.1-13.4Q71.1-11.55 70.1-10.5L70.1-10.5Q68.7-9.05 66.82-8.03 64.95-7 62.85-7L62.85-7Q60.2-7 58.82-8.35 57.45-9.7 57.45-12L57.45-12Q57.45-12.75 57.6-13.5L57.6-13.5Q57.7-14.5 57.7-14.85L57.7-14.85Q57.7-15.65 57.15-15.65L57.15-15.65Q56.4-15.65 55.17-13.98 53.95-12.3 52.75-9.55 51.55-6.8 50.8-3.75L50.8-3.75Q50.25-1.4 49.52-0.58 48.8 0.25 47.25 0.25L47.25 0.25ZM73-26.6Q70.9-26.6 69.85-27.58 68.8-28.55 68.8-30.3L68.8-30.3Q68.8-32.05 70.17-33.23 71.55-34.4 73.6-34.4L73.6-34.4Q75.45-34.4 76.6-33.5 77.75-32.6 77.75-30.95L77.75-30.95Q77.75-28.95 76.45-27.78 75.15-26.6 73-26.6L73-26.6ZM72.6 0.25Q69.35 0.25 67.87-2.05 66.4-4.35 66.4-8.15L66.4-8.15Q66.4-10.4 66.97-13.93 67.55-17.45 68.45-20.5L68.45-20.5Q68.9-22.1 69.65-22.7 70.4-23.3 72.05-23.3L72.05-23.3Q74.6-23.3 74.6-21.6L74.6-21.6Q74.6-20.35 73.65-15.8L73.65-15.8Q72.45-10.3 72.45-8.35L72.45-8.35Q72.45-6.85 72.85-6.05 73.25-5.25 74.2-5.25L74.2-5.25Q75.1-5.25 76.45-6.5 77.8-7.75 80.05-10.45L80.05-10.45Q80.65-11.15 81.4-11.15L81.4-11.15Q82.05-11.15 82.42-10.55 82.8-9.95 82.8-8.9L82.8-8.9Q82.8-6.9 81.85-5.8L81.85-5.8Q76.9 0.25 72.6 0.25L72.6 0.25ZM105.44-11.15Q106.09-11.15 106.47-10.55 106.84-9.95 106.84-8.9L106.84-8.9Q106.84-6.9 105.89-5.8L105.89-5.8Q103.74-3.15 101.27-1.45 98.79 0.25 95.64 0.25L95.64 0.25Q92.99 0.25 91.34-1.65L91.34-1.65Q88.49 0.2 85.39 0.25L85.39 0.25Q84.74 9.9 82.44 16.38 80.14 22.85 75.69 22.85L75.69 22.85Q72.99 22.85 71.69 20.9 70.39 18.95 70.39 15.5L70.39 15.5Q70.39 10.6 72.64 4.08 74.89-2.45 79.59-10.3L79.59-10.3Q79.59-17.6 79.49-20.45L79.49-20.45Q79.44-21.9 80.64-22.75 81.84-23.6 83.64-23.6L83.64-23.6Q84.69-23.6 85.17-23.18 85.64-22.75 85.69-21.5L85.69-21.5Q85.69-20.25 85.74-19.65L85.74-19.65Q87.34-21.65 88.89-22.53 90.44-23.4 92.19-23.4L92.19-23.4Q94.99-23.4 96.77-21.15 98.54-18.9 98.54-15.25L98.54-15.25Q98.54-12.6 97.69-10.1 96.84-7.6 95.34-5.55L95.34-5.55Q96.39-5.25 97.09-5.25L97.09-5.25Q98.74-5.25 100.24-6.45 101.74-7.65 104.09-10.45L104.09-10.45Q104.69-11.15 105.44-11.15L105.44-11.15ZM85.64-4.55Q87.44-4.95 88.97-6.53 90.49-8.1 91.39-10.43 92.29-12.75 92.29-15.3L92.29-15.3Q92.29-16.8 91.69-17.57 91.09-18.35 90.09-18.35L90.09-18.35Q88.29-18.35 85.74-14.55L85.74-14.55Q85.69-12.35 85.69-8.1L85.69-8.1Q85.69-5.8 85.64-4.55L85.64-4.55ZM76.09 17.95Q77.44 17.95 78.34 12.08 79.24 6.2 79.49-2.55L79.49-2.55Q77.34 2.45 76.09 7 74.84 11.55 74.84 14.65L74.84 14.65Q74.84 16.25 75.22 17.1 75.59 17.95 76.09 17.95L76.09 17.95Z" opacity="1" transform="matrix(1,0,0,1,0,0)" fill="#000000" class="undefined-text-0" data-fill-palette-color="primary" id="SvgjsPath1020" stroke-width="5" stroke="black" stroke-linejoin="round"></path></svg></g></svg></g></svg></g></svg></g><g></g></svg></g></svg></g></svg></g></mask><mask id="8e736f30-3074-4960-9f33-b84e85f2652c"><rect width="395.52" height="247.2" fill="white"></rect><g transform="matrix(1,0,0,1,63.91960479887081,37.08)" id="clone"><svg viewBox="0 0 267.68079040225837 173.04" height="173.04" width="267.68079040225837"><g><svg viewBox="0 0 267.68079040225837 173.04" height="173.04" width="267.68079040225837"><g><svg viewBox="0 0 267.68079040225837 173.04" height="173.04" width="267.68079040225837"><g><svg viewBox="0 0 267.68079040225837 173.04" height="173.04" width="267.68079040225837"><g id="SvgjsG1050"><svg viewBox="0 0 267.68079040225837 173.04" height="173.04" width="267.68079040225837" id="SvgjsSvg1049"><g><svg viewBox="0 0 267.68079040225837 173.04" height="173.04" width="267.68079040225837"><g transform="matrix(1,0,0,1,0,0)"><svg width="267.68079040225837" viewBox="-0.75 -46 110.58999633789062 71.8499984741211" height="173.04" data-palette-color="#000000"><path d="M15.4 0.25Q12.5 0.25 8.85-0.25L8.85-0.25Q6.85-0.5 6.1-1.3 5.35-2.1 5.45-3.9L5.45-3.9Q5.8-8.85 7.1-16.13 8.4-23.4 10.25-30.15L10.25-30.15Q10.6-31.4 11.65-31.9 12.7-32.4 14.4-32.4L14.4-32.4Q17.45-32.4 17.45-30.7L17.45-30.7Q17.45-30 17.15-29.1L17.15-29.1Q15.85-25.1 14.55-18.38 13.25-11.65 12.7-5.55L12.7-5.55Q14.2-5.4 16.1-5.4L16.1-5.4Q24.85-5.4 29.18-10.7 33.5-16 33.5-24.85L33.5-24.85Q33.5-30.8 30.1-34.05 26.7-37.3 20.5-37.3L20.5-37.3Q16.5-37.3 12.58-36.05 8.65-34.8 5.5-32.75L5.5-32.75Q4.85-32.3 4.1-32.3L4.1-32.3Q3.25-32.3 2.75-33.02 2.25-33.75 2.25-34.8L2.25-34.8Q2.25-36 2.65-36.77 3.05-37.55 4-38.2L4-38.2Q7.45-40.55 12.1-41.78 16.75-43 21.05-43L21.05-43Q27.15-43 31.6-40.88 36.05-38.75 38.45-34.65 40.85-30.55 40.85-24.75L40.85-24.75Q40.85-17.2 37.85-11.58 34.85-5.95 29.1-2.85 23.35 0.25 15.4 0.25L15.4 0.25ZM47.25 0.25Q45.35 0.25 44.57-1.75 43.8-3.75 43.8-8.15L43.8-8.15Q43.8-14.65 45.65-20.5L45.65-20.5Q46.1-21.95 47.12-22.63 48.15-23.3 50-23.3L50-23.3Q51-23.3 51.4-23.05 51.8-22.8 51.8-22.1L51.8-22.1Q51.8-21.3 51.05-18.5L51.05-18.5Q50.55-16.5 50.25-15 49.95-13.5 49.75-11.3L49.75-11.3Q51.4-15.6 53.45-18.3 55.5-21 57.47-22.15 59.45-23.3 61.1-23.3L61.1-23.3Q64.35-23.3 64.35-20.05L64.35-20.05Q64.35-19.4 63.9-16.9L63.9-16.9Q63.5-14.9 63.5-14.4L63.5-14.4Q63.5-12.65 64.75-12.65L64.75-12.65Q66.15-12.65 68.35-14.85L68.35-14.85Q69-15.5 69.7-15.5L69.7-15.5Q70.35-15.5 70.72-14.93 71.1-14.35 71.1-13.4L71.1-13.4Q71.1-11.55 70.1-10.5L70.1-10.5Q68.7-9.05 66.82-8.03 64.95-7 62.85-7L62.85-7Q60.2-7 58.82-8.35 57.45-9.7 57.45-12L57.45-12Q57.45-12.75 57.6-13.5L57.6-13.5Q57.7-14.5 57.7-14.85L57.7-14.85Q57.7-15.65 57.15-15.65L57.15-15.65Q56.4-15.65 55.17-13.98 53.95-12.3 52.75-9.55 51.55-6.8 50.8-3.75L50.8-3.75Q50.25-1.4 49.52-0.58 48.8 0.25 47.25 0.25L47.25 0.25ZM73-26.6Q70.9-26.6 69.85-27.58 68.8-28.55 68.8-30.3L68.8-30.3Q68.8-32.05 70.17-33.23 71.55-34.4 73.6-34.4L73.6-34.4Q75.45-34.4 76.6-33.5 77.75-32.6 77.75-30.95L77.75-30.95Q77.75-28.95 76.45-27.78 75.15-26.6 73-26.6L73-26.6ZM72.6 0.25Q69.35 0.25 67.87-2.05 66.4-4.35 66.4-8.15L66.4-8.15Q66.4-10.4 66.97-13.93 67.55-17.45 68.45-20.5L68.45-20.5Q68.9-22.1 69.65-22.7 70.4-23.3 72.05-23.3L72.05-23.3Q74.6-23.3 74.6-21.6L74.6-21.6Q74.6-20.35 73.65-15.8L73.65-15.8Q72.45-10.3 72.45-8.35L72.45-8.35Q72.45-6.85 72.85-6.05 73.25-5.25 74.2-5.25L74.2-5.25Q75.1-5.25 76.45-6.5 77.8-7.75 80.05-10.45L80.05-10.45Q80.65-11.15 81.4-11.15L81.4-11.15Q82.05-11.15 82.42-10.55 82.8-9.95 82.8-8.9L82.8-8.9Q82.8-6.9 81.85-5.8L81.85-5.8Q76.9 0.25 72.6 0.25L72.6 0.25ZM105.44-11.15Q106.09-11.15 106.47-10.55 106.84-9.95 106.84-8.9L106.84-8.9Q106.84-6.9 105.89-5.8L105.89-5.8Q103.74-3.15 101.27-1.45 98.79 0.25 95.64 0.25L95.64 0.25Q92.99 0.25 91.34-1.65L91.34-1.65Q88.49 0.2 85.39 0.25L85.39 0.25Q84.74 9.9 82.44 16.38 80.14 22.85 75.69 22.85L75.69 22.85Q72.99 22.85 71.69 20.9 70.39 18.95 70.39 15.5L70.39 15.5Q70.39 10.6 72.64 4.08 74.89-2.45 79.59-10.3L79.59-10.3Q79.59-17.6 79.49-20.45L79.49-20.45Q79.44-21.9 80.64-22.75 81.84-23.6 83.64-23.6L83.64-23.6Q84.69-23.6 85.17-23.18 85.64-22.75 85.69-21.5L85.69-21.5Q85.69-20.25 85.74-19.65L85.74-19.65Q87.34-21.65 88.89-22.53 90.44-23.4 92.19-23.4L92.19-23.4Q94.99-23.4 96.77-21.15 98.54-18.9 98.54-15.25L98.54-15.25Q98.54-12.6 97.69-10.1 96.84-7.6 95.34-5.55L95.34-5.55Q96.39-5.25 97.09-5.25L97.09-5.25Q98.74-5.25 100.24-6.45 101.74-7.65 104.09-10.45L104.09-10.45Q104.69-11.15 105.44-11.15L105.44-11.15ZM85.64-4.55Q87.44-4.95 88.97-6.53 90.49-8.1 91.39-10.43 92.29-12.75 92.29-15.3L92.29-15.3Q92.29-16.8 91.69-17.57 91.09-18.35 90.09-18.35L90.09-18.35Q88.29-18.35 85.74-14.55L85.74-14.55Q85.69-12.35 85.69-8.1L85.69-8.1Q85.69-5.8 85.64-4.55L85.64-4.55ZM76.09 17.95Q77.44 17.95 78.34 12.08 79.24 6.2 79.49-2.55L79.49-2.55Q77.34 2.45 76.09 7 74.84 11.55 74.84 14.65L74.84 14.65Q74.84 16.25 75.22 17.1 75.59 17.95 76.09 17.95L76.09 17.95Z" opacity="1" transform="matrix(1,0,0,1,0,0)" fill="#000000" class="undefined-text-0" data-fill-palette-color="primary" id="SvgjsPath1048" stroke-width="5" stroke="black" stroke-linejoin="round"></path></svg></g></svg></g></svg></g></svg></g><g></g></svg></g></svg></g></svg></g></mask></defs></svg><rect width="395.52" height="247.2" fill="none" stroke="none" visibility="hidden"></rect></g></svg></g></svg>